<svg id="Layer_1" data-name="Layer 1" xmlns="http://www.w3.org/2000/svg" viewBox="0 0 250 250"><defs><style>.cls-1{fill:none;stroke:#7df3e1;stroke-linejoin:round;stroke-width:1.25px}</style></defs><path class="cls-1" d="M157.82 203.89a5.28 5.28 0 01-.67 3.09c-3.75 6.21-21.45 2.39-39.54-8.53-15.74-9.45-26.61-21.22-26.68-28.2-7.27-.67-12.6.66-14.77 4.26-5.58 9.25 11.76 29.94 38.74 46.21s53.36 22 58.94 12.72c3.77-6.26-2.94-17.74-16.02-29.55zm0 0c-.3-5.42-6.78-13.52-16.86-21.24 0 0 0 .09-.05.13-1.91 3.15-10.91 1.22-20.14-4.35-6.92-4.17-12-9.2-13.27-12.78-7.89-2-13.88-1.51-15.88 1.81a5.24 5.24 0 00-.69 2.79"/><path class="cls-1" d="M90.93 170.25c.09 7 10.94 18.71 26.68 28.2 18.09 10.92 35.79 14.74 39.54 8.53a5.28 5.28 0 00.67-3.09M141 182.65c1.69-3.22-4.19-10.17-13.28-15.66s-18.23-7.5-20.14-4.34a3.49 3.49 0 000 3m-.08 0c1.29 3.58 6.35 8.61 13.27 12.78 9.22 5.56 18.23 7.5 20.14 4.35 0 0 0-.09.05-.13M117.79 126a6.09 6.09 0 000 2.58l6.36 27 7.2-21.89a9.86 9.86 0 00.45-4.26"/><path class="cls-1" d="M154.88 109V75.86a82.39 82.39 0 00-28-61.9l-2.08-1.83a45.42 45.42 0 00-30.1 42.76V94c-.64 9.87 5.75 21.3 17.08 28.72a44.56 44.56 0 006 3.28 6.16 6.16 0 019.26-4.09 10.13 10.13 0 014.8 7.57c8.51.37 16.05-2.61 20.12-8.83a18.2 18.2 0 002.88-8.6v-.38a20 20 0 00.04-2.67z"/><path class="cls-1" d="M131.85 129.49a10.13 10.13 0 00-4.8-7.57 6.16 6.16 0 00-9.26 4.09m55.97-29.35V86.55c.19-3.07-1.79-6.62-5.32-8.93-4.67-3.06-10.27-2.77-12.5.64a5.58 5.58 0 00-.89 2.68V81a5.89 5.89 0 000 .84v34.73c-.2 3.08 1.79 6.63 5.31 8.94 4.67 3.06 10.27 2.77 12.5-.64a5.71 5.71 0 00.9-2.68V96.66zm-79.1-36.73a5.75 5.75 0 000-.83V59a5.63 5.63 0 00-.9-2.67c-2.23-3.41-7.83-3.7-12.5-.65-3.52 2.31-5.51 5.87-5.31 8.94v30.31c-.2 3.08 1.79 6.63 5.31 8.94 4.67 3.06 10.27 2.77 12.5-.64a5.71 5.71 0 00.9-2.68v-.12a5.75 5.75 0 000-.83V59.94z"/><ellipse class="cls-1" cx="122.77" cy="62.49" rx="10.06" ry="11.36"/></svg>